<svg width="50" height="44" viewBox="0 0 50 44" fill="none" xmlns="http://www.w3.org/2000/svg">
<path d="M29.175 18.3425C28.9769 18.3412 28.7864 18.4182 28.645 18.5569C28.5035 18.6955 28.4226 18.8845 28.42 19.0825V24.6125C28.4226 24.811 28.5038 25.0003 28.6458 25.139C28.7878 25.2777 28.979 25.3545 29.1775 25.3525H45.835C46.0335 25.3545 46.2247 25.2777 46.3667 25.139C46.5087 25.0003 46.5899 24.811 46.5925 24.6125V19.0825C46.5899 18.884 46.5087 18.6947 46.3667 18.556C46.2247 18.4173 46.0335 18.3405 45.835 18.3425H29.1775H29.175ZM39.39 0.7525C41.695 0.8625 43.3525 1.3175 44.4025 2.2825C45.44 3.2375 45.9725 4.62 46.0775 6.45V11.6925C46.0722 12.139 45.89 12.5651 45.5708 12.8773C45.2515 13.1894 44.8215 13.3622 44.375 13.3575C44.1537 13.3601 43.9341 13.3192 43.7286 13.2369C43.5232 13.1547 43.336 13.0328 43.1776 12.8782C43.0193 12.7235 42.893 12.5393 42.8059 12.3358C42.7188 12.1324 42.6726 11.9138 42.67 11.6925L42.6725 6.545C42.6175 5.595 42.39 5.005 42.065 4.705C41.75 4.415 40.79 4.155 39.3075 4.08H6.6175C5.275 4.13 4.4025 4.385 3.98 4.7475C3.655 5.025 3.41 5.79 3.4075 7.1125L3.4 36.5375C3.525 37.8225 3.8075 38.68 4.17 39.1075C4.445 39.4325 5.2975 39.7575 6.5525 39.9175H39.3425C40.8775 39.9475 41.7825 39.7175 42.0875 39.41C42.425 39.0675 42.67 38.1675 42.67 36.695V31.5825C42.67 30.665 43.4325 29.9175 44.375 29.9175C45.315 29.9175 46.0775 30.665 46.0775 31.5825V36.695C46.0775 38.945 45.6175 40.6275 44.54 41.72C43.43 42.845 41.665 43.295 39.3075 43.245L6.35 43.2375C4.1075 42.9775 2.5 42.3625 1.5425 41.23C0.675 40.205 0.1925 38.7425 0 36.6975V7.11C0.005 4.92 0.53 3.2725 1.735 2.2425C2.84 1.2925 4.435 0.83 6.5525 0.75H39.39V0.7525ZM45.835 15.0125C48.135 15.0125 50 16.835 50 19.0825V24.6125C50 26.86 48.135 28.6825 45.835 28.6825H29.1775C26.8775 28.6825 25.0125 26.8575 25.0125 24.6125V19.0825C25.0125 16.835 26.8775 15.0125 29.1775 15.0125H45.835ZM33.3425 19.8625C32.1925 19.8625 31.26 20.7625 31.26 21.87C31.26 22.98 32.1925 23.8775 33.3425 23.8775C34.4925 23.8775 35.425 22.9775 35.425 21.87C35.425 20.76 34.4925 19.86 33.3425 19.86V19.8625Z" fill="#4F4F4F"/>
</svg>
