<svg width="50" height="50" viewBox="0 0 50 50" fill="none" xmlns="http://www.w3.org/2000/svg">
<path d="M49.5 9.875C49.5 7.3886 48.5123 5.00403 46.7541 3.24587C44.996 1.48772 42.6114 0.5 40.125 0.5H13.875C11.3886 0.5 9.00403 1.48772 7.24587 3.24587C5.48772 5.00403 4.5 7.3886 4.5 9.875V14.5925C7.27321 12.7347 10.537 11.7451 13.875 11.75C17.895 11.75 21.585 13.1562 24.4837 15.5H45.75V36.125C45.75 37.6168 45.1574 39.0476 44.1025 40.1025C43.0476 41.1574 41.6168 41.75 40.125 41.75H34.9537L36.6037 43.4C37.215 44.0112 37.6575 44.7313 37.9312 45.5H40.125C42.6114 45.5 44.996 44.5123 46.7541 42.7541C48.5123 40.996 49.5 38.6114 49.5 36.125V9.875ZM13.875 11.75H8.25V9.875C8.25 8.38316 8.84263 6.95242 9.89752 5.89752C10.9524 4.84263 12.3832 4.25 13.875 4.25H40.125C41.6168 4.25 43.0476 4.84263 44.1025 5.89752C45.1574 6.95242 45.75 8.38316 45.75 9.875V11.75H13.875ZM21.735 39.1363C19.0775 41.1234 15.766 42.0303 12.4669 41.6743C9.16773 41.3182 6.12589 39.7258 3.95353 37.2174C1.78118 34.7091 0.639559 31.471 0.758432 28.1548C0.877306 24.8387 2.24785 21.6906 4.59423 19.3442C6.94061 16.9979 10.0887 15.6273 13.4048 15.5084C16.721 15.3896 19.9591 16.5312 22.4674 18.7035C24.9758 20.8759 26.5682 23.9177 26.9243 27.2169C27.2803 30.516 26.3734 33.8275 24.3862 36.485L33.9487 46.0475C34.3008 46.3991 34.4988 46.8761 34.4992 47.3737C34.4995 47.8712 34.3022 48.3486 33.9506 48.7006C33.599 49.0527 33.122 49.2507 32.6244 49.251C32.1269 49.2514 31.6496 49.0541 31.2975 48.7025L21.735 39.14V39.1363ZM23.25 28.625C23.25 26.1386 22.2623 23.754 20.5041 21.9959C18.746 20.2377 16.3614 19.25 13.875 19.25C11.3886 19.25 9.00403 20.2377 7.24587 21.9959C5.48772 23.754 4.5 26.1386 4.5 28.625C4.5 31.1114 5.48772 33.496 7.24587 35.2541C9.00403 37.0123 11.3886 38 13.875 38C16.3614 38 18.746 37.0123 20.5041 35.2541C22.2623 33.496 23.25 31.1114 23.25 28.625Z" fill="#4F4F4F"/>
</svg>
