<?xml version="1.0" encoding="utf-8"?>
<!-- Generator: Adobe Illustrator 25.0.0, SVG Export Plug-In . SVG Version: 6.00 Build 0)  -->
<svg version="1.1" id="Layer_1" xmlns="http://www.w3.org/2000/svg" xmlns:xlink="http://www.w3.org/1999/xlink" x="0px" y="0px"
	 viewBox="0 0 20 18" style="enable-background:new 0 0 20 18;" xml:space="preserve">
<style type="text/css">
	.st0{fill:#285698;}
	.st1{fill:#FCFCFC;}
</style>
<g>
	<path class="st0" d="M17,18H3c-1.7,0-3-1.3-3-3V3c0-1.7,1.3-3,3-3h14c1.7,0,3,1.3,3,3v12C20,16.7,18.7,18,17,18z"/>
</g>
<g>
	<g>
		<path class="st1" d="M6,14c-0.6,0-1-0.4-1-1V7c0-0.6,0.4-1,1-1s1,0.4,1,1v6C7,13.6,6.6,14,6,14z"/>
	</g>
</g>
<g>
	<g>
		<path class="st1" d="M10,14c-0.6,0-1-0.4-1-1V9c0-0.6,0.4-1,1-1s1,0.4,1,1v4C11,13.6,10.6,14,10,14z"/>
	</g>
</g>
<g>
	<g>
		<path class="st1" d="M14,14c-0.6,0-1-0.4-1-1V5c0-0.6,0.4-1,1-1s1,0.4,1,1v8C15,13.6,14.6,14,14,14z"/>
	</g>
</g>
</svg>
