<svg width="20" height="22" viewBox="0 0 20 22" fill="none" xmlns="http://www.w3.org/2000/svg">
<path d="M2.42278 4.15941L2.8167 5.07856L2.42278 4.15941C1.60355 4.51051 1.11551 5.36135 1.22606 6.24577L1.96405 12.1497C2.1842 13.9109 3.06517 15.5227 4.4287 16.659L8.71963 20.2347C9.46132 20.8528 10.5387 20.8528 11.2804 20.2347L15.5713 16.659C16.9348 15.5227 17.8158 13.9109 18.036 12.1497L18.7739 6.24577C18.8845 5.36135 18.3965 4.51051 17.5772 4.15941L10.7878 1.24968C10.2847 1.03406 9.71526 1.03406 9.21216 1.24968L2.42278 4.15941Z" stroke="#285698" stroke-opacity="0.3" stroke-width="2" stroke-linecap="round"/>
<path d="M6.625 11L9.56874 13.9437C9.79184 14.1668 10.1633 14.1301 10.3383 13.8675L14.5 7.625" stroke="#285698" stroke-opacity="0.3" stroke-width="2" stroke-linecap="round"/>
</svg>
