<?xml version="1.0" encoding="utf-8"?>
<!-- Generator: Adobe Illustrator 25.0.0, SVG Export Plug-In . SVG Version: 6.00 Build 0)  -->
<svg version="1.1" id="Layer_1" xmlns="http://www.w3.org/2000/svg" xmlns:xlink="http://www.w3.org/1999/xlink" x="0px" y="0px"
	 viewBox="0 0 20 22" style="enable-background:new 0 0 20 22;" xml:space="preserve">
<style type="text/css">
	.st0{fill:#285698;}
	.st1{fill:#FFFFFF;}
</style>
<g>
	<path class="st0" d="M10,21.7c-0.7,0-1.4-0.2-1.9-0.7l-4.3-3.6c-1.6-1.3-2.6-3.1-2.8-5.2L0.2,6.4c-0.1-1,0.2-1.9,0.9-2.6L1.1,3.6
		l7.7-3.3c0.8-0.3,1.6-0.3,2.4,0L18,3.2c1.2,0.5,2,1.8,1.8,3.1L19,12.3c-0.3,2-1.3,3.9-2.8,5.2L11.9,21C11.4,21.5,10.7,21.7,10,21.7
		z M2.8,5.1c-0.4,0.2-0.6,0.6-0.6,1L3,12c0.2,1.5,0.9,2.9,2.1,3.9l4.3,3.6c0.4,0.3,0.9,0.3,1.3,0l4.3-3.6c1.2-1,1.9-2.4,2.1-3.9
		l0.7-5.9c0.1-0.4-0.2-0.9-0.6-1l-6.8-2.9c-0.2-0.1-0.5-0.1-0.8,0L2.8,5.1z"/>
</g>
<path class="st0" d="M2.4,4.2l0.4,0.9L2.4,4.2C1.6,4.5,1.1,5.4,1.2,6.2L2,12.1c0.2,1.8,1.1,3.4,2.5,4.5l4.3,3.6
	c0.7,0.6,1.8,0.6,2.6,0l4.3-3.6c1.4-1.1,2.2-2.7,2.5-4.5l0.7-5.9c0.1-0.9-0.4-1.7-1.2-2.1l-6.8-2.9C10.3,1,9.7,1,9.2,1.2L2.4,4.2z"
	/>
<g>
	<path class="st1" d="M9.9,15.1c-0.4,0-0.8-0.2-1.1-0.4l-2.9-2.9c-0.4-0.4-0.4-1,0-1.4s1-0.4,1.4,0l2.5,2.5l3.8-5.7
		c0.3-0.5,0.9-0.6,1.4-0.3c0.5,0.3,0.6,0.9,0.3,1.4l-4.2,6.2c-0.3,0.4-0.7,0.6-1.1,0.7C10,15.1,10,15.1,9.9,15.1z"/>
</g>
</svg>
