<svg width="40" height="54" viewBox="0 0 40 54" fill="none" xmlns="http://www.w3.org/2000/svg">
<path d="M17.8467 19.5133C18.1596 19.2004 18.3354 18.7759 18.3354 18.3333C18.3354 17.8907 18.1596 17.4663 17.8467 17.1533C17.5337 16.8404 17.1093 16.6646 16.6667 16.6646C16.2241 16.6646 15.7996 16.8404 15.4867 17.1533L10.78 21.86L9.45667 20.6533C9.12786 20.3723 8.70268 20.2301 8.27096 20.2568C7.83924 20.2835 7.4348 20.4769 7.14311 20.7963C6.85142 21.1157 6.69532 21.536 6.7078 21.9684C6.72029 22.4007 6.90037 22.8113 7.21 23.1133L9.71 25.3967C10.0268 25.6851 10.4424 25.8404 10.8707 25.8305C11.2989 25.8206 11.7069 25.6461 12.01 25.3433L17.8433 19.51L17.8467 19.5133ZM17.8467 33.82C18.0019 33.9748 18.125 34.1587 18.209 34.3612C18.2931 34.5637 18.3363 34.7808 18.3363 35C18.3363 35.2192 18.2931 35.4363 18.209 35.6388C18.125 35.8413 18.0019 36.0252 17.8467 36.18L12.0133 42.0133C11.7097 42.3166 11.3008 42.4911 10.8717 42.5004C10.4426 42.5097 10.0265 42.3532 9.71 42.0633L7.21 39.78C6.90037 39.478 6.72029 39.0674 6.7078 38.635C6.69532 38.2027 6.85142 37.7824 7.14311 37.463C7.4348 37.1436 7.83924 36.9501 8.27096 36.9234C8.70268 36.8968 9.12786 37.039 9.45667 37.32L10.78 38.53L15.4867 33.82C15.6415 33.6648 15.8254 33.5416 16.0279 33.4576C16.2304 33.3736 16.4474 33.3304 16.6667 33.3304C16.8859 33.3304 17.103 33.3736 17.3054 33.4576C17.5079 33.5416 17.6918 33.6648 17.8467 33.82ZM23.3333 36.6667C22.8913 36.6667 22.4674 36.8423 22.1548 37.1548C21.8423 37.4674 21.6667 37.8913 21.6667 38.3333C21.6667 38.7754 21.8423 39.1993 22.1548 39.5118C22.4674 39.8244 22.8913 40 23.3333 40H31.6667C32.1087 40 32.5326 39.8244 32.8452 39.5118C33.1577 39.1993 33.3333 38.7754 33.3333 38.3333C33.3333 37.8913 33.1577 37.4674 32.8452 37.1548C32.5326 36.8423 32.1087 36.6667 31.6667 36.6667H23.3333ZM21.6667 21.6667C21.6667 21.2246 21.8423 20.8007 22.1548 20.4882C22.4674 20.1756 22.8913 20 23.3333 20H31.6667C32.1087 20 32.5326 20.1756 32.8452 20.4882C33.1577 20.8007 33.3333 21.2246 33.3333 21.6667C33.3333 22.1087 33.1577 22.5326 32.8452 22.8452C32.5326 23.1577 32.1087 23.3333 31.6667 23.3333H23.3333C22.8913 23.3333 22.4674 23.1577 22.1548 22.8452C21.8423 22.5326 21.6667 22.1087 21.6667 21.6667ZM15 6.87456e-07C13.9656 -0.0005416 12.9565 0.319759 12.1117 0.916761C11.2669 1.51376 10.6281 2.35807 10.2833 3.33333H5C3.67392 3.33333 2.40215 3.86012 1.46447 4.7978C0.526784 5.73548 0 7.00725 0 8.33333V48.3333C0 49.6594 0.526784 50.9312 1.46447 51.8689C2.40215 52.8065 3.67392 53.3333 5 53.3333H35C36.3261 53.3333 37.5979 52.8065 38.5355 51.8689C39.4732 50.9312 40 49.6594 40 48.3333V8.33333C40 7.00725 39.4732 5.73548 38.5355 4.7978C37.5979 3.86012 36.3261 3.33333 35 3.33333H29.7167C29.3719 2.35807 28.7331 1.51376 27.8883 0.916761C27.0435 0.319759 26.0344 -0.0005416 25 6.87456e-07H15ZM13.3333 5C13.3333 4.55797 13.5089 4.13405 13.8215 3.82149C14.134 3.50893 14.558 3.33333 15 3.33333H25C25.442 3.33333 25.866 3.50893 26.1785 3.82149C26.4911 4.13405 26.6667 4.55797 26.6667 5C26.6667 5.44203 26.4911 5.86595 26.1785 6.17851C25.866 6.49107 25.442 6.66667 25 6.66667H15C14.558 6.66667 14.134 6.49107 13.8215 6.17851C13.5089 5.86595 13.3333 5.44203 13.3333 5ZM5 6.66667H10.2833C10.6281 7.64193 11.2669 8.48624 12.1117 9.08324C12.9565 9.68024 13.9656 10.0005 15 10H25C26.0344 10.0005 27.0435 9.68024 27.8883 9.08324C28.7331 8.48624 29.3719 7.64193 29.7167 6.66667H35C35.442 6.66667 35.866 6.84226 36.1785 7.15482C36.4911 7.46738 36.6667 7.89131 36.6667 8.33333V48.3333C36.6667 48.7754 36.4911 49.1993 36.1785 49.5118C35.866 49.8244 35.442 50 35 50H5C4.55797 50 4.13405 49.8244 3.82149 49.5118C3.50893 49.1993 3.33333 48.7754 3.33333 48.3333V8.33333C3.33333 7.89131 3.50893 7.46738 3.82149 7.15482C4.13405 6.84226 4.55797 6.66667 5 6.66667Z" fill="#4F4F4F"/>
</svg>
