<?xml version="1.0" encoding="utf-8"?>
<!-- Generator: Adobe Illustrator 25.0.0, SVG Export Plug-In . SVG Version: 6.00 Build 0)  -->
<svg version="1.1" id="Layer_1" xmlns="http://www.w3.org/2000/svg" xmlns:xlink="http://www.w3.org/1999/xlink" x="0px" y="0px"
	 viewBox="0 0 20 18" style="enable-background:new 0 0 20 18;" xml:space="preserve">
<style type="text/css">
	.st0{fill:#285698;}
	.st1{fill:#FFFFFF;}
</style>
<g>
	<g>
		<path class="st0" d="M12.2,18H7.8c-3.3,0-5.2,0-6.5-1.3C0,15.4,0,13.5,0,10.1V7.9c0-3.4,0-5.3,1.3-6.6C2.6,0,4.4,0,7.8,0h4.5
			c3.3,0,5.2,0,6.5,1.3C20,2.6,20,4.5,20,7.9v2.3c0,3.4,0,5.3-1.3,6.6C17.4,18,15.6,18,12.2,18z M7.8,2c-3.1,0-4.4,0-5,0.7
			C2,3.4,2,4.9,2,7.9v2.3c0,3,0,4.4,0.7,5.2c0.7,0.7,2,0.7,5,0.7h4.5c3.1,0,4.4,0,5-0.7c0.7-0.7,0.7-2.2,0.7-5.2V7.9
			c0-3,0-4.4-0.7-5.2c-0.7-0.7-2-0.7-5-0.7H7.8z"/>
	</g>
	<path class="st0" d="M12.2,1H7.8C4.6,1,3,1,2,2C1,3,1,4.6,1,7.9v2.3C1,13.4,1,15,2,16c1,1,2.6,1,5.8,1h4.5c3.2,0,4.8,0,5.8-1
		c1-1,1-2.6,1-5.9V7.9C19,4.6,19,3,18,2C17,1,15.4,1,12.2,1z"/>
</g>
<g>
	<path class="st1" d="M8,6H5C4.4,6,4,5.6,4,5s0.4-1,1-1h3c0.6,0,1,0.4,1,1S8.6,6,8,6z"/>
</g>
<path class="st1" d="M13,11L13,11c0-0.9,0-1.4,0.3-1.7l0,0C13.6,9,14.1,9,15,9h2c0.9,0,1.4,0,1.7,0.3l0,0C19,9.6,19,10.1,19,11l0,0
	c0,0.9,0,1.4-0.3,1.7l0,0C18.4,13,17.9,13,17,13h-2c-0.9,0-1.4,0-1.7-0.3l0,0C13,12.4,13,11.9,13,11z"/>
</svg>
