<?xml version="1.0" encoding="utf-8"?>
<!-- Generator: Adobe Illustrator 25.0.0, SVG Export Plug-In . SVG Version: 6.00 Build 0)  -->
<svg version="1.1" id="Layer_1" xmlns="http://www.w3.org/2000/svg" xmlns:xlink="http://www.w3.org/1999/xlink" x="0px" y="0px"
	 viewBox="0 0 18 18" style="enable-background:new 0 0 18 18;" xml:space="preserve">
<style type="text/css">
	.st0{opacity:0.3;fill:none;stroke:#285698;stroke-miterlimit:10;}
</style>
<path class="st0" d="M0,9c0-5,4-9,9-9s9,4,9,9c0,2.7-1.2,5.1-3,6.7c-0.4-1.1-1.1-2.1-2.1-2.8c-1.1-0.9-2.5-1.3-3.9-1.3
	s-2.8,0.5-3.9,1.3c-0.9,0.7-1.7,1.7-2.1,2.8C1.2,14.1,0,11.7,0,9z M12.3,13.7c0.9,0.7,1.5,1.6,1.9,2.7C12.7,17.4,11,18,9,18
	c-1.9,0-3.7-0.6-5.2-1.6c0.3-1.1,1-2,1.9-2.7c1-0.7,2.1-1.1,3.3-1.1S11.3,13,12.3,13.7z M9,10c2,0,3.7-1.7,3.7-3.7S11,2.6,9,2.6
	S5.3,4.3,5.3,6.3S7,10,9,10z M11.7,6.3C11.7,7.8,10.5,9,9,9S6.3,7.8,6.3,6.3S7.5,3.6,9,3.6S11.7,4.8,11.7,6.3z"/>
</svg>
