<svg width="18" height="18" viewBox="0 0 18 18" fill="none" xmlns="http://www.w3.org/2000/svg">
<path fill-rule="evenodd" clip-rule="evenodd" d="M0 9C0 4.02944 4.02944 0 9 0C13.9706 0 18 4.02944 18 9C18 11.6749 16.8331 14.0772 14.9806 15.7256C14.5602 14.6198 13.8397 13.6479 12.8944 12.9225C11.7767 12.0649 10.4072 11.6 8.99835 11.6C7.58949 11.6 6.22 12.0649 5.10227 12.9225C4.15764 13.6474 3.43745 14.6185 3.01693 15.7234C1.16586 14.075 0 11.6737 0 9ZM12.2857 13.7159C13.1679 14.3928 13.818 15.3244 14.1502 16.3817C12.691 17.4017 10.9154 18 9 18C7.08344 18 5.3068 17.4009 3.84713 16.3798C4.17942 15.3233 4.82936 14.3924 5.71103 13.7159C6.65411 12.9922 7.80962 12.6 8.99835 12.6C10.1871 12.6 11.3426 12.9922 12.2857 13.7159ZM8.99917 9.99999C11.0426 9.99999 12.6992 8.34345 12.6992 6.29999C12.6992 4.25654 11.0426 2.59999 8.99917 2.59999C6.95572 2.59999 5.29917 4.25654 5.29917 6.29999C5.29917 8.34345 6.95572 9.99999 8.99917 9.99999ZM11.6992 6.29999C11.6992 7.79116 10.4903 8.99999 8.99917 8.99999C7.508 8.99999 6.29917 7.79116 6.29917 6.29999C6.29917 4.80882 7.508 3.59999 8.99917 3.59999C10.4903 3.59999 11.6992 4.80882 11.6992 6.29999Z" fill="#285698"/>
</svg>
